; NON-PLATED HOLES START AT T1
; THROUGH (PLATED) HOLES START AT T100
M48
INCH
T1C0.118110
T100C0.033944
T101C0.039370
T102C0.031555
T103C0.030000
T104C0.040000
T105C0.031496
T106C0.038000
T107C0.031497
T108C0.035000
T109C0.015748
T110C0.100000
%
T1
X025198Y000845
X025198Y022844
X001198Y022844
T100
X019198Y004344
X018198Y004344
X018198Y003344
X017198Y003344
X017198Y004344
X020198Y004344
X019198Y003344
X020198Y003344
T101
X010698Y019344
X008698Y019344
X009698Y019344
T102
X004698Y012344
T103
X003698Y005843
X003698Y006844
X008698Y017844
X003698Y002846
X004698Y014344
X010698Y016843
X010698Y017844
X003698Y004846
X008698Y016843
X003698Y003844
X002698Y015346
X002698Y014344
X003698Y009344
X003698Y001845
X003698Y008343
X004698Y015346
T104
X001698Y003722
X022698Y019344
X020698Y019344
X021698Y019344
X001698Y002345
X019698Y019344
X023698Y019344
X018698Y019344
X001698Y006844
X001698Y008222
T105
X002767Y012344
T106
X024698Y007844
X022698Y006844
X012698Y022844
X023698Y008844
X024698Y005844
X023698Y005844
X023698Y021344
X023698Y003844
X022698Y007844
X022698Y005844
X014698Y022844
X023698Y006844
X013698Y022844
X024698Y008844
X022698Y021344
X024698Y006844
X024698Y003844
X021698Y021344
X022698Y003844
X023698Y007844
X022698Y008844
X020698Y021344
T107
X013698Y019344
X013698Y018360
T108
X020698Y006844
X007698Y013844
X012698Y013844
X009698Y006344
X012698Y010844
X015698Y010844
X012698Y006344
X010698Y013844
X015698Y016844
X010698Y003344
X016698Y007844
X019698Y013844
X019698Y015844
X013698Y010844
X015698Y013844
X008698Y003344
X019698Y010844
X024757Y014345
X008698Y010844
X010698Y010844
X012698Y003344
X015698Y015844
X009698Y003344
X009698Y013844
X011698Y006344
X007698Y010844
X020698Y013844
X013698Y006344
X007698Y006344
X018698Y021344
X008698Y021344
X009698Y010844
X018698Y010844
X014698Y010844
X018698Y013844
X020698Y010844
X011698Y003344
X013698Y003344
X007698Y003344
X024757Y012573
X016698Y010844
X006698Y006344
X010698Y006344
X014698Y013844
X014698Y021344
X016698Y006844
X022198Y012573
X011698Y016844
X016698Y013844
X011698Y010844
X012698Y021344
X022198Y014345
X017698Y010844
X008698Y013844
X006698Y003344
X011698Y013844
X013698Y013844
X017698Y013844
X008698Y006344
X020698Y007844
T109
X002691Y016352
X023694Y015844
X004693Y007844
X024192Y015343
X007203Y016347
X013698Y007344
X018698Y008844
X004699Y002838
X015203Y007841
X006693Y007844
X017195Y016849
X021708Y001337
X017199Y018348
X011698Y007344
X013194Y012340
X020198Y017344
X020203Y009844
X006198Y015844
X007203Y017338
X024198Y001345
X015698Y003344
X018198Y009344
T110
X003898Y017444
X005098Y019344
X002698Y019344
T00
M30
