; NON-PLATED HOLES START AT T1
; THROUGH (PLATED) HOLES START AT T100
M48
INCH
T1C0.118110
T100C0.033944
T101C0.040000
T102C0.030000
T103C0.031496
T104C0.038000
T105C0.100000
T106C0.039370
T107C0.035000
T108C0.031497
T109C0.015748
T110C0.031555
%
T1
X001198Y022844
X001198Y000845
X025198Y000845
X025198Y022844
T100
X017198Y004344
X017198Y003344
X019198Y004344
X018198Y004344
X018198Y003344
X020198Y003344
X019198Y003344
X020198Y004344
T101
X019698Y019344
X023698Y019344
X001698Y006844
X022698Y019344
X001698Y002345
X021698Y019344
X020698Y019344
X001698Y003722
X001698Y008222
X018698Y019344
T102
X003698Y001845
X003698Y003844
X010698Y016843
X003698Y005843
X003698Y009344
X004698Y015346
X010698Y017844
X003698Y002846
X002698Y015346
X004698Y014344
X002698Y014344
X008698Y017844
X003698Y004846
X003698Y006844
X003698Y008343
X008698Y016843
T103
X002767Y012344
T104
X020698Y021844
X023698Y006844
X023698Y007844
X022698Y008844
X024698Y005844
X024698Y003844
X023698Y003844
X022698Y021844
X023698Y021844
X024698Y007844
X021698Y021844
X022698Y006844
X022698Y005844
X023698Y005844
X022698Y003844
X024698Y008844
X023698Y008844
X022698Y007844
X024698Y006844
T105
X002698Y019344
X005098Y019344
X003898Y017444
T106
X010698Y019344
X008698Y019344
X009698Y019344
T107
X007698Y003344
X015698Y010844
X024757Y014345
X022198Y014345
X008698Y003344
X009698Y010844
X006698Y006344
X019698Y013844
X008698Y021344
X011698Y006344
X011698Y013844
X006698Y003344
X007698Y010844
X015698Y015844
X020698Y013844
X018698Y021344
X014698Y010844
X011698Y003344
X009698Y003344
X011698Y010844
X018698Y013844
X010698Y010844
X017698Y010844
X013698Y003344
X024757Y012573
X014698Y013844
X016698Y006844
X020698Y010844
X010698Y006344
X009698Y013844
X020698Y006844
X015698Y013844
X010698Y013844
X016698Y007844
X012698Y003344
X022198Y012573
X013698Y006344
X020698Y007844
X015698Y016844
X007698Y006344
X013698Y013844
X019698Y015844
X016698Y013844
X008698Y006344
X007698Y013844
X012698Y010844
X009698Y006344
X012698Y021344
X014698Y021344
X012698Y006344
X008698Y010844
X010698Y003344
X008698Y013844
X012698Y013844
X017698Y013844
X018698Y010844
X019698Y010844
X013698Y010844
X016698Y010844
X011698Y016844
T108
X013698Y018360
X013698Y019344
T109
X004693Y007844
X013194Y012340
X018198Y009344
X018698Y008844
X006198Y015844
X020203Y009844
X024198Y015844
X024198Y001345
X015698Y003344
X004704Y005837
X004698Y001845
X013698Y004844
X011698Y007344
X017195Y016849
X007203Y017338
X004699Y002838
X023698Y016344
X015203Y007841
X006693Y007844
X013698Y007344
X017199Y018348
X007203Y016347
X020198Y017344
T110
X004698Y012344
T00
M30
