G04 MADE WITH FRITZING*
G04 WWW.FRITZING.ORG*
G04 DOUBLE SIDED*
G04 HOLES PLATED*
G04 CONTOUR ON CENTER OF CONTOUR VECTOR*
%ASAXBY*%
%FSLAX23Y23*%
%MOIN*%
%OFA0B0*%
%SFA1.0B1.0*%
%ADD10C,0.039370*%
%ADD11C,0.078000*%
%ADD12C,0.067278*%
%ADD13C,0.075000*%
%ADD14C,0.064000*%
%ADD15C,0.080000*%
%ADD16C,0.070000*%
%ADD17C,0.074000*%
%ADD18C,0.062992*%
%ADD19C,0.070925*%
%ADD20C,0.070866*%
%ADD21C,0.140000*%
%ADD22R,0.078000X0.078000*%
%ADD23R,0.075000X0.075000*%
%ADD24R,0.080000X0.080000*%
%ADD25R,0.062992X0.062992*%
%ADD26C,0.024000*%
%ADD27R,0.001000X0.001000*%
%LNCOPPER1*%
G90*
G70*
G54D10*
X1520Y784D03*
X1370Y734D03*
X1820Y934D03*
X470Y284D03*
X2171Y134D03*
X2420Y135D03*
G54D11*
X1270Y2284D03*
X1370Y2284D03*
X1470Y2284D03*
X2470Y384D03*
X2370Y384D03*
X2270Y384D03*
G54D10*
X669Y784D03*
X469Y784D03*
X1570Y334D03*
X1170Y734D03*
X269Y1635D03*
X1319Y1234D03*
X2419Y1534D03*
X2020Y1734D03*
X620Y1584D03*
X1870Y884D03*
X2020Y984D03*
X2369Y1584D03*
X720Y1734D03*
X720Y1635D03*
X1720Y1685D03*
X1720Y1835D03*
G54D12*
X2020Y334D03*
X1920Y334D03*
X1820Y334D03*
X1720Y334D03*
X2020Y434D03*
X1920Y434D03*
X1820Y434D03*
X1720Y434D03*
G54D11*
X2370Y584D03*
X2370Y684D03*
X2370Y784D03*
X2370Y884D03*
X2270Y584D03*
X2270Y684D03*
X2270Y784D03*
X2270Y884D03*
X2470Y584D03*
X2470Y684D03*
X2470Y784D03*
X2470Y884D03*
G54D13*
X1670Y684D03*
X2070Y684D03*
X1670Y784D03*
X2070Y784D03*
G54D11*
X2070Y2134D03*
X2170Y2134D03*
X2270Y2134D03*
X2370Y2134D03*
G54D14*
X2370Y1934D03*
X2270Y1934D03*
X2170Y1934D03*
X2070Y1934D03*
X1970Y1934D03*
X1870Y1934D03*
G54D13*
X870Y2134D03*
X1270Y2134D03*
X1470Y2134D03*
X1870Y2134D03*
X670Y334D03*
X670Y634D03*
X770Y334D03*
X770Y634D03*
X870Y334D03*
X870Y634D03*
X970Y334D03*
X970Y634D03*
X1070Y334D03*
X1070Y634D03*
X1170Y334D03*
X1170Y634D03*
X1270Y334D03*
X1270Y634D03*
X1370Y334D03*
X1370Y634D03*
G54D15*
X170Y822D03*
X170Y684D03*
X170Y372D03*
X170Y235D03*
G54D16*
X370Y834D03*
X370Y934D03*
X370Y584D03*
X370Y684D03*
X370Y485D03*
X370Y384D03*
X370Y285D03*
X370Y185D03*
G54D17*
X870Y1934D03*
X970Y1934D03*
X1070Y1934D03*
X870Y1934D03*
X970Y1934D03*
X1070Y1934D03*
G54D16*
X1070Y1684D03*
X1070Y1784D03*
X870Y1684D03*
X870Y1784D03*
G54D18*
X1370Y1934D03*
X1370Y1836D03*
G54D13*
X1170Y1684D03*
X1570Y1684D03*
X2070Y1384D03*
X2070Y1084D03*
X1970Y1384D03*
X1970Y1084D03*
X1870Y1384D03*
X1870Y1084D03*
X1770Y1384D03*
X1770Y1084D03*
X1670Y1384D03*
X1670Y1084D03*
X1570Y1384D03*
X1570Y1084D03*
X1470Y1384D03*
X1470Y1084D03*
X1370Y1384D03*
X1370Y1084D03*
X1270Y1384D03*
X1270Y1084D03*
X1170Y1384D03*
X1170Y1084D03*
X1070Y1384D03*
X1070Y1084D03*
X970Y1384D03*
X970Y1084D03*
X870Y1384D03*
X870Y1084D03*
X770Y1384D03*
X770Y1084D03*
X1570Y1584D03*
X1970Y1584D03*
G54D19*
X470Y1234D03*
G54D20*
X277Y1234D03*
G54D16*
X270Y1535D03*
X270Y1434D03*
X470Y1535D03*
X470Y1434D03*
G54D13*
X2220Y1435D03*
X2476Y1435D03*
X2220Y1257D03*
X2476Y1257D03*
G54D21*
X510Y1934D03*
X270Y1934D03*
X390Y1744D03*
G54D22*
X1270Y2284D03*
X2470Y384D03*
G54D23*
X670Y334D03*
G54D24*
X170Y822D03*
X170Y372D03*
G54D25*
X1370Y1934D03*
G54D23*
X2070Y1384D03*
G54D26*
X1420Y684D02*
X1390Y655D01*
D02*
X1420Y784D02*
X1420Y684D01*
D02*
X1470Y834D02*
X1420Y784D01*
D02*
X1571Y834D02*
X1470Y834D01*
D02*
X1571Y634D02*
X1571Y834D01*
D02*
X1620Y585D02*
X1571Y634D01*
D02*
X1670Y585D02*
X1620Y585D01*
D02*
X1770Y685D02*
X1670Y585D01*
D02*
X1770Y784D02*
X1770Y685D01*
D02*
X1571Y984D02*
X1770Y784D01*
D02*
X1570Y1056D02*
X1571Y984D01*
D02*
X1669Y1285D02*
X1670Y1356D01*
D02*
X1720Y1234D02*
X1669Y1285D01*
D02*
X2119Y1234D02*
X1720Y1234D01*
D02*
X2171Y1184D02*
X2119Y1234D01*
D02*
X2520Y1185D02*
X2171Y1184D01*
D02*
X2569Y1234D02*
X2520Y1185D01*
D02*
X2569Y2085D02*
X2569Y1234D01*
D02*
X2370Y2283D02*
X2569Y2085D01*
D02*
X1500Y2284D02*
X2370Y2283D01*
D02*
X2121Y1134D02*
X2520Y1134D01*
D02*
X2071Y1185D02*
X2121Y1134D01*
D02*
X1671Y1134D02*
X1721Y1184D01*
D02*
X1721Y1184D02*
X2071Y1185D01*
D02*
X2520Y1134D02*
X2570Y1084D01*
D02*
X2570Y1084D02*
X2571Y284D01*
D02*
X2571Y284D02*
X2433Y148D01*
D02*
X2152Y134D02*
X520Y134D01*
D02*
X520Y134D02*
X470Y184D01*
D02*
X470Y184D02*
X470Y265D01*
D02*
X1670Y1113D02*
X1671Y1134D01*
D02*
X1441Y2134D02*
X1298Y2134D01*
D02*
X2270Y135D02*
X2220Y85D01*
D02*
X2220Y85D02*
X169Y85D01*
D02*
X70Y186D02*
X69Y984D01*
D02*
X169Y85D02*
X70Y186D01*
D02*
X69Y984D02*
X120Y1035D01*
D02*
X120Y1035D02*
X419Y1035D01*
D02*
X419Y1035D02*
X469Y984D01*
D02*
X469Y984D02*
X469Y803D01*
D02*
X669Y984D02*
X750Y1064D01*
D02*
X669Y803D02*
X669Y984D01*
D02*
X2270Y354D02*
X2270Y135D01*
D02*
X2470Y435D02*
X2470Y415D01*
D02*
X2420Y484D02*
X2470Y435D01*
D02*
X2070Y484D02*
X2420Y484D01*
D02*
X2040Y454D02*
X2070Y484D01*
D02*
X1820Y916D02*
X1820Y634D01*
D02*
X1820Y634D02*
X1571Y385D01*
D02*
X1571Y385D02*
X1570Y353D01*
D02*
X1220Y1284D02*
X1170Y1235D01*
D02*
X1170Y1235D02*
X670Y1235D01*
D02*
X1470Y1185D02*
X1419Y1234D01*
D02*
X1419Y1234D02*
X1338Y1234D01*
D02*
X1470Y1113D02*
X1470Y1185D01*
D02*
X1570Y1334D02*
X1519Y1285D01*
D02*
X1519Y1285D02*
X1220Y1284D01*
D02*
X670Y1235D02*
X520Y1084D01*
D02*
X520Y1084D02*
X520Y585D01*
D02*
X520Y585D02*
X571Y534D01*
D02*
X571Y534D02*
X720Y534D01*
D02*
X720Y534D02*
X770Y485D01*
D02*
X770Y485D02*
X770Y363D01*
D02*
X1570Y1356D02*
X1570Y1334D01*
D02*
X1270Y1134D02*
X1219Y1185D01*
D02*
X1219Y1185D02*
X720Y1185D01*
D02*
X720Y1185D02*
X570Y1035D01*
D02*
X570Y735D02*
X650Y655D01*
D02*
X570Y1035D02*
X570Y735D01*
D02*
X1270Y1113D02*
X1270Y1134D01*
D02*
X870Y985D02*
X770Y884D01*
D02*
X770Y884D02*
X770Y663D01*
D02*
X870Y1056D02*
X870Y985D01*
D02*
X720Y1985D02*
X769Y2034D01*
D02*
X720Y1753D02*
X720Y1985D01*
D02*
X1720Y1985D02*
X1720Y1854D01*
D02*
X769Y2034D02*
X1669Y2034D01*
D02*
X1669Y2034D02*
X1720Y1985D01*
D02*
X1739Y1685D02*
X2271Y1684D01*
D02*
X2271Y1684D02*
X2356Y1598D01*
D02*
X2001Y984D02*
X1970Y984D01*
D02*
X1970Y984D02*
X1920Y934D01*
D02*
X1920Y934D02*
X1920Y463D01*
D02*
X1869Y484D02*
X1840Y454D01*
D02*
X1870Y866D02*
X1869Y484D01*
D02*
X970Y1435D02*
X1020Y1485D01*
D02*
X1020Y1485D02*
X2119Y1485D01*
D02*
X2119Y1485D02*
X2170Y1534D01*
D02*
X2170Y1534D02*
X2400Y1534D01*
D02*
X970Y1413D02*
X970Y1435D01*
D02*
X1369Y1035D02*
X1519Y885D01*
D02*
X1571Y885D02*
X1650Y805D01*
D02*
X1519Y885D02*
X1571Y885D01*
D02*
X1370Y1056D02*
X1369Y1035D01*
D02*
X370Y1685D02*
X370Y1534D01*
D02*
X370Y1534D02*
X444Y1535D01*
D02*
X1070Y1334D02*
X1020Y1284D01*
D02*
X1020Y1284D02*
X720Y1284D01*
D02*
X720Y1284D02*
X670Y1334D01*
D02*
X670Y1334D02*
X670Y1535D01*
D02*
X670Y1535D02*
X720Y1584D01*
D02*
X720Y1584D02*
X720Y1616D01*
D02*
X1070Y1356D02*
X1070Y1334D01*
D02*
X470Y1685D02*
X844Y1684D01*
D02*
X371Y1687D02*
X370Y1685D01*
D02*
X296Y1535D02*
X444Y1535D01*
D02*
X439Y1708D02*
X470Y1685D01*
D02*
X1520Y765D02*
X1519Y284D01*
D02*
X1820Y284D02*
X1820Y306D01*
D02*
X1770Y234D02*
X1820Y284D01*
D02*
X1569Y234D02*
X1770Y234D01*
D02*
X1519Y284D02*
X1569Y234D01*
D02*
X2070Y935D02*
X2070Y1056D01*
D02*
X1970Y834D02*
X2070Y935D01*
D02*
X1970Y735D02*
X1970Y834D01*
D02*
X2019Y685D02*
X1970Y735D01*
D02*
X2041Y685D02*
X2019Y685D01*
D02*
X2270Y1966D02*
X2270Y2104D01*
D02*
X2170Y2104D02*
X2170Y1966D01*
D02*
X2070Y1966D02*
X2070Y2104D01*
D02*
X2170Y584D02*
X2170Y835D01*
D02*
X2170Y835D02*
X2220Y884D01*
D02*
X2040Y454D02*
X2170Y584D01*
D02*
X2220Y884D02*
X2240Y884D01*
D02*
X320Y584D02*
X270Y634D01*
D02*
X270Y634D02*
X270Y885D01*
D02*
X270Y885D02*
X320Y935D01*
D02*
X320Y935D02*
X344Y935D01*
D02*
X344Y584D02*
X320Y584D01*
D02*
X320Y484D02*
X270Y434D01*
D02*
X320Y184D02*
X344Y184D01*
D02*
X270Y235D02*
X320Y184D01*
D02*
X270Y434D02*
X270Y235D01*
D02*
X344Y484D02*
X320Y484D01*
D02*
X569Y285D02*
X569Y384D01*
D02*
X619Y235D02*
X569Y285D01*
D02*
X920Y235D02*
X619Y235D01*
D02*
X970Y285D02*
X920Y235D01*
D02*
X569Y384D02*
X469Y484D01*
D02*
X469Y484D02*
X396Y485D01*
D02*
X970Y306D02*
X970Y285D01*
D02*
X1169Y235D02*
X1170Y306D01*
D02*
X1119Y185D02*
X1169Y235D01*
D02*
X569Y185D02*
X1119Y185D01*
D02*
X519Y235D02*
X569Y185D01*
D02*
X519Y335D02*
X519Y235D01*
D02*
X469Y384D02*
X519Y335D01*
D02*
X396Y384D02*
X469Y384D01*
D02*
X1189Y734D02*
X1351Y734D01*
D02*
X2370Y2184D02*
X2370Y2165D01*
D02*
X2320Y2235D02*
X2370Y2184D01*
D02*
X1921Y2235D02*
X2320Y2235D01*
D02*
X1870Y2184D02*
X1921Y2235D01*
D02*
X1870Y2163D02*
X1870Y2184D01*
D02*
X998Y634D02*
X1041Y634D01*
D02*
X1070Y606D02*
X1070Y363D01*
D02*
X970Y363D02*
X970Y606D01*
D02*
X2119Y1734D02*
X2039Y1734D01*
D02*
X2269Y1884D02*
X2119Y1734D01*
D02*
X2269Y1903D02*
X2269Y1884D01*
D02*
X1870Y1834D02*
X1820Y1784D01*
D02*
X1820Y1784D02*
X1421Y1785D01*
D02*
X1421Y1785D02*
X1320Y1684D01*
D02*
X1320Y1684D02*
X1198Y1684D01*
D02*
X1870Y1903D02*
X1870Y1834D01*
D02*
X620Y1384D02*
X620Y1566D01*
D02*
X570Y1334D02*
X620Y1384D01*
D02*
X370Y1334D02*
X570Y1334D01*
D02*
X288Y1416D02*
X370Y1334D01*
D02*
X998Y334D02*
X1041Y334D01*
G54D27*
X833Y1971D02*
X906Y1971D01*
X833Y1970D02*
X906Y1970D01*
X833Y1969D02*
X906Y1969D01*
X833Y1968D02*
X906Y1968D01*
X833Y1967D02*
X906Y1967D01*
X833Y1966D02*
X906Y1966D01*
X833Y1965D02*
X906Y1965D01*
X833Y1964D02*
X906Y1964D01*
X833Y1963D02*
X906Y1963D01*
X833Y1962D02*
X906Y1962D01*
X833Y1961D02*
X906Y1961D01*
X833Y1960D02*
X906Y1960D01*
X833Y1959D02*
X906Y1959D01*
X833Y1958D02*
X906Y1958D01*
X833Y1957D02*
X906Y1957D01*
X833Y1956D02*
X906Y1956D01*
X833Y1955D02*
X906Y1955D01*
X833Y1954D02*
X864Y1954D01*
X874Y1954D02*
X906Y1954D01*
X833Y1953D02*
X861Y1953D01*
X877Y1953D02*
X906Y1953D01*
X833Y1952D02*
X859Y1952D01*
X879Y1952D02*
X906Y1952D01*
X833Y1951D02*
X857Y1951D01*
X881Y1951D02*
X906Y1951D01*
X833Y1950D02*
X856Y1950D01*
X882Y1950D02*
X906Y1950D01*
X833Y1949D02*
X855Y1949D01*
X883Y1949D02*
X906Y1949D01*
X833Y1948D02*
X854Y1948D01*
X884Y1948D02*
X906Y1948D01*
X833Y1947D02*
X853Y1947D01*
X885Y1947D02*
X906Y1947D01*
X833Y1946D02*
X853Y1946D01*
X886Y1946D02*
X906Y1946D01*
X833Y1945D02*
X852Y1945D01*
X886Y1945D02*
X906Y1945D01*
X833Y1944D02*
X851Y1944D01*
X887Y1944D02*
X906Y1944D01*
X833Y1943D02*
X851Y1943D01*
X888Y1943D02*
X906Y1943D01*
X833Y1942D02*
X850Y1942D01*
X888Y1942D02*
X906Y1942D01*
X833Y1941D02*
X850Y1941D01*
X888Y1941D02*
X906Y1941D01*
X833Y1940D02*
X850Y1940D01*
X889Y1940D02*
X906Y1940D01*
X833Y1939D02*
X849Y1939D01*
X889Y1939D02*
X906Y1939D01*
X833Y1938D02*
X849Y1938D01*
X889Y1938D02*
X906Y1938D01*
X833Y1937D02*
X849Y1937D01*
X889Y1937D02*
X906Y1937D01*
X833Y1936D02*
X849Y1936D01*
X889Y1936D02*
X906Y1936D01*
X833Y1935D02*
X849Y1935D01*
X889Y1935D02*
X906Y1935D01*
X833Y1934D02*
X849Y1934D01*
X889Y1934D02*
X906Y1934D01*
X833Y1933D02*
X849Y1933D01*
X889Y1933D02*
X906Y1933D01*
X833Y1932D02*
X849Y1932D01*
X889Y1932D02*
X906Y1932D01*
X833Y1931D02*
X849Y1931D01*
X889Y1931D02*
X906Y1931D01*
X833Y1930D02*
X850Y1930D01*
X889Y1930D02*
X906Y1930D01*
X833Y1929D02*
X850Y1929D01*
X888Y1929D02*
X906Y1929D01*
X833Y1928D02*
X850Y1928D01*
X888Y1928D02*
X906Y1928D01*
X833Y1927D02*
X851Y1927D01*
X888Y1927D02*
X906Y1927D01*
X833Y1926D02*
X851Y1926D01*
X887Y1926D02*
X906Y1926D01*
X833Y1925D02*
X852Y1925D01*
X887Y1925D02*
X906Y1925D01*
X833Y1924D02*
X852Y1924D01*
X886Y1924D02*
X906Y1924D01*
X833Y1923D02*
X853Y1923D01*
X885Y1923D02*
X906Y1923D01*
X833Y1922D02*
X854Y1922D01*
X884Y1922D02*
X906Y1922D01*
X833Y1921D02*
X855Y1921D01*
X884Y1921D02*
X906Y1921D01*
X833Y1920D02*
X856Y1920D01*
X882Y1920D02*
X906Y1920D01*
X833Y1919D02*
X857Y1919D01*
X881Y1919D02*
X906Y1919D01*
X833Y1918D02*
X859Y1918D01*
X880Y1918D02*
X906Y1918D01*
X833Y1917D02*
X861Y1917D01*
X878Y1917D02*
X906Y1917D01*
X833Y1916D02*
X863Y1916D01*
X875Y1916D02*
X906Y1916D01*
X833Y1915D02*
X906Y1915D01*
X833Y1914D02*
X906Y1914D01*
X833Y1913D02*
X906Y1913D01*
X833Y1912D02*
X906Y1912D01*
X833Y1911D02*
X906Y1911D01*
X833Y1910D02*
X906Y1910D01*
X833Y1909D02*
X906Y1909D01*
X833Y1908D02*
X906Y1908D01*
X833Y1907D02*
X906Y1907D01*
X833Y1906D02*
X906Y1906D01*
X833Y1905D02*
X906Y1905D01*
X833Y1904D02*
X906Y1904D01*
X833Y1903D02*
X906Y1903D01*
X833Y1902D02*
X906Y1902D01*
X833Y1901D02*
X906Y1901D01*
X833Y1900D02*
X906Y1900D01*
X833Y1899D02*
X906Y1899D01*
X833Y1898D02*
X905Y1898D01*
D02*
G04 End of Copper1*
M02*